<?xml version="1.0" encoding="utf-8"?>
<!-- Generator: Adobe Illustrator 24.3.0, SVG Export Plug-In . SVG Version: 6.00 Build 0)  -->
<svg version="1.1" id="Layer_1" xmlns="http://www.w3.org/2000/svg" xmlns:xlink="http://www.w3.org/1999/xlink" x="0px" y="0px"
	 viewBox="0 0 80 80" enable-background="new 0 0 80 80" xml:space="preserve">
<path fill="#18CEF6" d="M66.393,30.766c-0.441-0.293-10.173-8.012-10.173-8.012h-8.228c-1.275,3.171-3.891,6.048-7.931,6.048
	c-3.893,0-6.657-2.877-7.932-6.048h-6.464c0,0-8.243,6.161-9.01,6.8c-0.735,0.613-0.711,1.366-0.245,2.23
	c0,0,1.91,3.121,2.302,3.734c0.08-0.023,6.747-5.276,9.303-7.286v35.211h28.205V32.082c2.462,1.891,7.017,5.289,7.125,5.289
	c0.147,0,1.322-0.209,1.506-0.334c0.184-0.126,2.46-4.849,2.46-5.142C67.312,31.603,66.834,31.059,66.393,30.766z"/>
<g>
	<path fill="#233251" d="M26.627,65.233c-1.565,0-2.833-1.443-2.834-3.226l0,0V33.932l-5.111,3.938
		c-0.436,0.333-0.937,0.497-1.428,0.496l0,0c-0.817,0.003-1.624-0.448-2.117-1.278l0,0l-3.438-5.782
		c-0.298-0.498-0.442-1.072-0.442-1.63l0,0c-0.001-0.931,0.397-1.849,1.124-2.41l0,0l12.024-9.264h0.269h0.004L34.631,18
		l0.001,0.003h1.239l-0.015,1.022c-0.001,0.053-0.004,0.087-0.005,0.103l0,0c0.012,2.703,1.935,4.889,4.313,4.894l0,0
		c2.375-0.006,4.299-2.189,4.313-4.89l0,0c-0.001-0.017-0.004-0.054-0.004-0.107l0,0l-0.017-1.022h12.391l12.031,9.266l-0.494,0.831
		l0.495-0.831c0.725,0.561,1.122,1.481,1.121,2.412l0,0c0,0.557-0.142,1.129-0.438,1.628l0,0l-3.442,5.786
		c-0.493,0.825-1.299,1.276-2.116,1.276l0,0c-0.492,0-0.994-0.163-1.43-0.5l0,0l-5.117-3.941v28.078
		c-0.001,1.781-1.269,3.226-2.835,3.226l0,0H26.627L26.627,65.233z M25.556,62.007c0,0.674,0.48,1.219,1.071,1.221l0,0h27.996
		c0.592-0.001,1.07-0.547,1.072-1.221l0,0V30.151l7.867,6.059c0.139,0.106,0.289,0.154,0.443,0.154l0,0
		c0.256-0.001,0.503-0.137,0.657-0.395l0,0l3.44-5.783c0.092-0.157,0.134-0.327,0.135-0.504l0,0c-0.001-0.293-0.123-0.575-0.35-0.75
		l0,0v-0.001L56.305,20.01H46.189c-0.388,3.395-2.938,6.018-6.026,6.019l0,0c-3.089-0.001-5.64-2.626-6.025-6.023l0,0l-9.193,0.004
		l-11.576,8.919c-0.228,0.176-0.347,0.457-0.348,0.748l0,0c0,0.177,0.042,0.344,0.137,0.504l0,0l3.44,5.785
		c0.153,0.258,0.399,0.394,0.656,0.396l0,0c0.152,0,0.304-0.049,0.443-0.154l0,0l7.86-6.055V62.007L25.556,62.007z"/>
</g>
</svg>
